%TF.GenerationSoftware,KiCad,Pcbnew,9.0.2*%
%TF.CreationDate,2025-07-22T14:14:04-06:00*%
%TF.ProjectId,Cyanide OD DIST,4379616e-6964-4652-904f-442044495354,v01*%
%TF.SameCoordinates,Original*%
%TF.FileFunction,Copper,L2,Bot*%
%TF.FilePolarity,Positive*%
%FSLAX46Y46*%
G04 Gerber Fmt 4.6, Leading zero omitted, Abs format (unit mm)*
G04 Created by KiCad (PCBNEW 9.0.2) date 2025-07-22 14:14:04*
%MOMM*%
%LPD*%
G01*
G04 APERTURE LIST*
G04 Aperture macros list*
%AMRoundRect*
0 Rectangle with rounded corners*
0 $1 Rounding radius*
0 $2 $3 $4 $5 $6 $7 $8 $9 X,Y pos of 4 corners*
0 Add a 4 corners polygon primitive as box body*
4,1,4,$2,$3,$4,$5,$6,$7,$8,$9,$2,$3,0*
0 Add four circle primitives for the rounded corners*
1,1,$1+$1,$2,$3*
1,1,$1+$1,$4,$5*
1,1,$1+$1,$6,$7*
1,1,$1+$1,$8,$9*
0 Add four rect primitives between the rounded corners*
20,1,$1+$1,$2,$3,$4,$5,0*
20,1,$1+$1,$4,$5,$6,$7,0*
20,1,$1+$1,$6,$7,$8,$9,0*
20,1,$1+$1,$8,$9,$2,$3,0*%
G04 Aperture macros list end*
%TA.AperFunction,ComponentPad*%
%ADD10RoundRect,0.285750X-0.666750X-0.666750X0.666750X-0.666750X0.666750X0.666750X-0.666750X0.666750X0*%
%TD*%
%TA.AperFunction,ComponentPad*%
%ADD11C,1.905000*%
%TD*%
%TA.AperFunction,ComponentPad*%
%ADD12C,1.600000*%
%TD*%
%TA.AperFunction,ComponentPad*%
%ADD13C,2.200000*%
%TD*%
%TA.AperFunction,ComponentPad*%
%ADD14RoundRect,0.249999X-0.850001X-0.850001X0.850001X-0.850001X0.850001X0.850001X-0.850001X0.850001X0*%
%TD*%
%TA.AperFunction,ComponentPad*%
%ADD15C,1.400000*%
%TD*%
%TA.AperFunction,ComponentPad*%
%ADD16O,1.600000X2.400000*%
%TD*%
%TA.AperFunction,ComponentPad*%
%ADD17RoundRect,0.250000X-0.550000X0.950000X-0.550000X-0.950000X0.550000X-0.950000X0.550000X0.950000X0*%
%TD*%
%TA.AperFunction,ComponentPad*%
%ADD18C,2.340000*%
%TD*%
%TA.AperFunction,ComponentPad*%
%ADD19C,1.620000*%
%TD*%
%TA.AperFunction,ComponentPad*%
%ADD20RoundRect,0.285750X0.666750X0.666750X-0.666750X0.666750X-0.666750X-0.666750X0.666750X-0.666750X0*%
%TD*%
%TA.AperFunction,ComponentPad*%
%ADD21R,1.500000X1.050000*%
%TD*%
%TA.AperFunction,ComponentPad*%
%ADD22O,1.500000X1.050000*%
%TD*%
%TA.AperFunction,ComponentPad*%
%ADD23RoundRect,0.250000X-0.550000X-0.550000X0.550000X-0.550000X0.550000X0.550000X-0.550000X0.550000X0*%
%TD*%
%TA.AperFunction,ComponentPad*%
%ADD24RoundRect,0.250000X0.550000X0.550000X-0.550000X0.550000X-0.550000X-0.550000X0.550000X-0.550000X0*%
%TD*%
%TA.AperFunction,ComponentPad*%
%ADD25O,1.050000X1.500000*%
%TD*%
%TA.AperFunction,ComponentPad*%
%ADD26R,1.050000X1.500000*%
%TD*%
%TA.AperFunction,Conductor*%
%ADD27C,0.200000*%
%TD*%
G04 APERTURE END LIST*
D10*
%TO.P,REF\u002A\u002A,1*%
%TO.N,GND*%
X104088528Y-112817805D03*
D11*
%TO.P,REF\u002A\u002A,2*%
X107088528Y-112817805D03*
%TD*%
D10*
%TO.P,REF\u002A\u002A,1*%
%TO.N,9V_DC*%
X110030000Y-66040000D03*
D11*
%TO.P,REF\u002A\u002A,2*%
%TO.N,GND*%
X113030000Y-66040000D03*
%TD*%
D12*
%TO.P,C3,2*%
%TO.N,GND*%
X105410000Y-79375000D03*
%TO.P,C3,1*%
%TO.N,+4.5V*%
X100410000Y-79375000D03*
%TD*%
D13*
%TO.P,D1,2,A*%
%TO.N,GND*%
X118745000Y-72390000D03*
D14*
%TO.P,D1,1,K*%
%TO.N,+9V*%
X108585000Y-72390000D03*
%TD*%
D15*
%TO.P,R2,2*%
%TO.N,+9V*%
X105410000Y-73660000D03*
%TO.P,R2,1*%
%TO.N,+4.5V*%
X100330000Y-73660000D03*
%TD*%
%TO.P,R3,2*%
%TO.N,+4.5V*%
X100330000Y-76200000D03*
%TO.P,R3,1*%
%TO.N,GND*%
X105410000Y-76200000D03*
%TD*%
D12*
%TO.P,C2,2*%
%TO.N,GND*%
X110490000Y-81240000D03*
%TO.P,C2,1*%
%TO.N,+9V*%
X110490000Y-76240000D03*
%TD*%
D15*
%TO.P,R1,2*%
%TO.N,+9V*%
X105410000Y-71120000D03*
%TO.P,R1,1*%
%TO.N,9V_DC*%
X100330000Y-71120000D03*
%TD*%
D12*
%TO.P,C1,2*%
%TO.N,GND*%
X116840000Y-80010000D03*
%TO.P,C1,1*%
%TO.N,+9V*%
X116840000Y-77510000D03*
%TD*%
D15*
%TO.P,R26,2*%
%TO.N,Net-(C20-Pad1)*%
X83820000Y-66040000D03*
%TO.P,R26,1*%
%TO.N,Net-(C21-Pad2)*%
X78740000Y-66040000D03*
%TD*%
%TO.P,R27,2*%
%TO.N,Net-(R24-Pad1)*%
X72390000Y-71120000D03*
%TO.P,R27,1*%
%TO.N,GND*%
X72390000Y-76200000D03*
%TD*%
D12*
%TO.P,C20,2*%
%TO.N,Net-(C20-Pad2)*%
X87630000Y-72350000D03*
%TO.P,C20,1*%
%TO.N,Net-(C20-Pad1)*%
X87630000Y-67350000D03*
%TD*%
D15*
%TO.P,R24,2*%
%TO.N,Net-(R24-Pad2)*%
X71120000Y-68580000D03*
%TO.P,R24,1*%
%TO.N,Net-(R24-Pad1)*%
X76200000Y-68580000D03*
%TD*%
D16*
%TO.P,U1,8,V+*%
%TO.N,+9V*%
X87630000Y-82550000D03*
%TO.P,U1,7*%
%TO.N,Net-(U1B--)*%
X85090000Y-82550000D03*
%TO.P,U1,6,-*%
X82550000Y-82550000D03*
%TO.P,U1,5,+*%
%TO.N,+4.5V*%
X80010000Y-82550000D03*
%TO.P,U1,4,V-*%
%TO.N,GND*%
X80010000Y-74930000D03*
%TO.P,U1,3,+*%
%TO.N,Net-(U1A-+)*%
X82550000Y-74930000D03*
%TO.P,U1,2,-*%
%TO.N,Net-(U1A--)*%
X85090000Y-74930000D03*
D17*
%TO.P,U1,1*%
%TO.N,Net-(C20-Pad2)*%
X87630000Y-74930000D03*
%TD*%
D18*
%TO.P,Rvol1,3,3*%
%TO.N,GND*%
X91980000Y-78660000D03*
%TO.P,Rvol1,2,2*%
%TO.N,Effect_out*%
X95980000Y-73660000D03*
%TO.P,Rvol1,1,1*%
%TO.N,Net-(R24-Pad1)*%
X91980000Y-68660000D03*
%TD*%
D19*
%TO.P,RV1,3,3*%
%TO.N,Net-(C20-Pad2)*%
X83820000Y-71120000D03*
%TO.P,RV1,2,2*%
X81320000Y-71120000D03*
%TO.P,RV1,1,1*%
%TO.N,Net-(U1A-+)*%
X78820000Y-71120000D03*
%TD*%
D12*
%TO.P,C19,2*%
%TO.N,Net-(C19-Pad2)*%
X72430000Y-82550000D03*
%TO.P,C19,1*%
%TO.N,GND*%
X77430000Y-82550000D03*
%TD*%
%TO.P,C21,2*%
%TO.N,Net-(C21-Pad2)*%
X76200000Y-71160000D03*
%TO.P,C21,1*%
%TO.N,GND*%
X76200000Y-76160000D03*
%TD*%
D15*
%TO.P,R25,2*%
%TO.N,Net-(C19-Pad2)*%
X72390000Y-78740000D03*
%TO.P,R25,1*%
%TO.N,Net-(U1A-+)*%
X77470000Y-78740000D03*
%TD*%
D11*
%TO.P,SW2B1,3*%
%TO.N,Net-(R24-Pad2)*%
X71160000Y-64770000D03*
%TO.P,SW2B1,2*%
%TO.N,Net-(C21-Pad2)*%
X73660000Y-64770000D03*
D20*
%TO.P,SW2B1,1*%
%TO.N,Net-(R24-Pad1)*%
X76160000Y-64770000D03*
%TD*%
D15*
%TO.P,R20,1*%
%TO.N,Net-(C15-Pad1)*%
X144780000Y-83820000D03*
%TO.P,R20,2*%
%TO.N,Dist_out*%
X139700000Y-83820000D03*
%TD*%
D12*
%TO.P,C15,2*%
%TO.N,Net-(C15-Pad2)*%
X137120000Y-76240000D03*
%TO.P,C15,1*%
%TO.N,Net-(C15-Pad1)*%
X137120000Y-81240000D03*
%TD*%
%TO.P,C16,2*%
%TO.N,Net-(C15-Pad2)*%
X137160000Y-73660000D03*
%TO.P,C16,1*%
%TO.N,Net-(C16-Pad1)*%
X137160000Y-68660000D03*
%TD*%
%TO.P,C8,1*%
%TO.N,GND*%
X130810000Y-65960000D03*
%TO.P,C8,2*%
%TO.N,Net-(C8-Pad2)*%
X125810000Y-65960000D03*
%TD*%
D15*
%TO.P,R22,1*%
%TO.N,Net-(U1A--)*%
X133350000Y-68580000D03*
%TO.P,R22,2*%
%TO.N,Net-(C15-Pad2)*%
X133350000Y-73660000D03*
%TD*%
D12*
%TO.P,C18,1*%
%TO.N,Net-(C18-Pad1)*%
X133350000Y-76200000D03*
%TO.P,C18,2*%
%TO.N,Dist_out*%
X133350000Y-81200000D03*
%TD*%
D15*
%TO.P,R19,2*%
%TO.N,Net-(U1A--)*%
X138430000Y-66040000D03*
%TO.P,R19,1*%
%TO.N,GND*%
X133350000Y-66040000D03*
%TD*%
%TO.P,R21,1*%
%TO.N,GND*%
X146050000Y-66040000D03*
%TO.P,R21,2*%
%TO.N,Net-(C16-Pad1)*%
X140970000Y-66040000D03*
%TD*%
D12*
%TO.P,C6,2*%
%TO.N,Net-(Q1-E)*%
X86400000Y-91440000D03*
%TO.P,C6,1*%
%TO.N,Net-(C6-Pad1)*%
X91400000Y-91440000D03*
%TD*%
D15*
%TO.P,R8,2*%
%TO.N,Buffer_out*%
X92710000Y-87630000D03*
%TO.P,R8,1*%
%TO.N,Net-(C6-Pad1)*%
X87630000Y-87630000D03*
%TD*%
%TO.P,R7,2*%
%TO.N,GND*%
X80010000Y-87590000D03*
%TO.P,R7,1*%
%TO.N,Net-(C6-Pad1)*%
X85090000Y-87590000D03*
%TD*%
%TO.P,R9,1*%
%TO.N,Buffer_out*%
X96560000Y-87630000D03*
%TO.P,R9,2*%
%TO.N,Net-(C17-Pad1)*%
X96560000Y-92710000D03*
%TD*%
D12*
%TO.P,C17,1*%
%TO.N,Net-(C17-Pad1)*%
X100330000Y-92670000D03*
%TO.P,C17,2*%
%TO.N,Net-(Q2-B)*%
X100330000Y-87670000D03*
%TD*%
%TO.P,C9,1*%
%TO.N,Net-(Q2-E)*%
X107910000Y-100330000D03*
%TO.P,C9,2*%
%TO.N,GND*%
X102910000Y-100330000D03*
%TD*%
D10*
%TO.P,SW2A1,1*%
%TO.N,unconnected-(SW2A1-Pad1)*%
X114300000Y-110490000D03*
D11*
%TO.P,SW2A1,2*%
%TO.N,Net-(D2-K)*%
X116800000Y-110490000D03*
%TO.P,SW2A1,3*%
%TO.N,Net-(Q3-C)*%
X119300000Y-110490000D03*
%TD*%
D12*
%TO.P,C14,1*%
%TO.N,Dist_out*%
X148590000Y-87670000D03*
%TO.P,C14,2*%
%TO.N,Net-(Q3-C)*%
X148590000Y-92670000D03*
%TD*%
%TO.P,C13,1*%
%TO.N,Net-(Q3-E)*%
X142240000Y-97830000D03*
%TO.P,C13,2*%
%TO.N,GND*%
X142240000Y-102830000D03*
%TD*%
D15*
%TO.P,R12,1*%
%TO.N,GND*%
X113070000Y-97790000D03*
%TO.P,R12,2*%
%TO.N,Net-(Q2-E)*%
X113070000Y-92710000D03*
%TD*%
D12*
%TO.P,C10,1*%
%TO.N,Net-(Q2-C)*%
X116880000Y-87630000D03*
%TO.P,C10,2*%
%TO.N,Net-(C10-Pad2)*%
X116880000Y-92630000D03*
%TD*%
D21*
%TO.P,Q3,1,C*%
%TO.N,Net-(Q3-C)*%
X140970000Y-91440000D03*
D22*
%TO.P,Q3,2,B*%
%TO.N,Net-(Q3-B)*%
X140970000Y-90170000D03*
%TO.P,Q3,3,E*%
%TO.N,Net-(Q3-E)*%
X140970000Y-88900000D03*
%TD*%
D23*
%TO.P,D2,1,K*%
%TO.N,Net-(D2-K)*%
X113070000Y-102870000D03*
D12*
%TO.P,D2,2,A*%
%TO.N,Net-(D2-A)*%
X120690000Y-102870000D03*
%TD*%
D15*
%TO.P,R16,1*%
%TO.N,Net-(Q3-B)*%
X137160000Y-92710000D03*
%TO.P,R16,2*%
%TO.N,Net-(Q3-C)*%
X137160000Y-87630000D03*
%TD*%
D24*
%TO.P,D3,1,K*%
%TO.N,Net-(D2-A)*%
X120690000Y-105410000D03*
D12*
%TO.P,D3,2,A*%
%TO.N,Net-(D2-K)*%
X113070000Y-105410000D03*
%TD*%
D15*
%TO.P,R15,1*%
%TO.N,Net-(R15-Pad1)*%
X129540000Y-92710000D03*
%TO.P,R15,2*%
%TO.N,Net-(C11-Pad2)*%
X129540000Y-87630000D03*
%TD*%
D12*
%TO.P,C12,1*%
%TO.N,Net-(D2-A)*%
X129540000Y-100250000D03*
%TO.P,C12,2*%
%TO.N,Net-(Q3-B)*%
X129540000Y-95250000D03*
%TD*%
D15*
%TO.P,R14,1*%
%TO.N,Net-(C10-Pad2)*%
X116880000Y-95250000D03*
%TO.P,R14,2*%
%TO.N,Net-(R14-Pad2)*%
X116880000Y-100330000D03*
%TD*%
%TO.P,R13,1*%
%TO.N,+9V*%
X109260000Y-87630000D03*
%TO.P,R13,2*%
%TO.N,Net-(Q2-C)*%
X109260000Y-92710000D03*
%TD*%
D12*
%TO.P,C7,1*%
%TO.N,Net-(C17-Pad1)*%
X96560000Y-95250000D03*
%TO.P,C7,2*%
%TO.N,GND*%
X96560000Y-100250000D03*
%TD*%
D15*
%TO.P,R17,1*%
%TO.N,GND*%
X133350000Y-100330000D03*
%TO.P,R17,2*%
%TO.N,Net-(Q3-B)*%
X133350000Y-95250000D03*
%TD*%
%TO.P,R23,1*%
%TO.N,+9V*%
X144780000Y-87630000D03*
%TO.P,R23,2*%
%TO.N,Net-(Q3-C)*%
X144780000Y-92710000D03*
%TD*%
D21*
%TO.P,Q2,1,C*%
%TO.N,Net-(Q2-C)*%
X113070000Y-90170000D03*
D22*
%TO.P,Q2,2,B*%
%TO.N,Net-(Q2-B)*%
X113070000Y-88900000D03*
%TO.P,Q2,3,E*%
%TO.N,Net-(Q2-E)*%
X113070000Y-87630000D03*
%TD*%
D15*
%TO.P,R11,1*%
%TO.N,Net-(Q2-B)*%
X106720000Y-87630000D03*
%TO.P,R11,2*%
%TO.N,Net-(Q2-C)*%
X106720000Y-92710000D03*
%TD*%
%TO.P,R18,1*%
%TO.N,GND*%
X129540000Y-102870000D03*
%TO.P,R18,2*%
%TO.N,Net-(Q3-E)*%
X134620000Y-102870000D03*
%TD*%
%TO.P,R10,1*%
%TO.N,GND*%
X104180000Y-92710000D03*
%TO.P,R10,2*%
%TO.N,Net-(Q2-B)*%
X104180000Y-87630000D03*
%TD*%
D12*
%TO.P,C11,1*%
%TO.N,Net-(Q3-B)*%
X133350000Y-92630000D03*
%TO.P,C11,2*%
%TO.N,Net-(C11-Pad2)*%
X133350000Y-87630000D03*
%TD*%
D10*
%TO.P,REF\u002A\u002A,1*%
%TO.N,+9V*%
X104140000Y-109220000D03*
D11*
%TO.P,REF\u002A\u002A,2*%
X107140000Y-109220000D03*
%TD*%
D18*
%TO.P,Rbass1,1,1*%
%TO.N,Net-(C15-Pad1)*%
X146240000Y-79930000D03*
%TO.P,Rbass1,2,2*%
%TO.N,Net-(C15-Pad2)*%
X142240000Y-74930000D03*
%TO.P,Rbass1,3,3*%
%TO.N,Net-(C16-Pad1)*%
X146240000Y-69930000D03*
%TD*%
%TO.P,Rtreble1,3,3*%
%TO.N,Net-(C18-Pad1)*%
X125540000Y-81200000D03*
%TO.P,Rtreble1,2,2*%
%TO.N,Net-(U1A--)*%
X129540000Y-76200000D03*
%TO.P,Rtreble1,1,1*%
%TO.N,Net-(C8-Pad2)*%
X125540000Y-71200000D03*
%TD*%
D11*
%TO.P,REF\u002A\u002A,4*%
%TO.N,Effect_out*%
X99020000Y-110490000D03*
%TO.P,REF\u002A\u002A,3*%
%TO.N,N/C*%
X96520000Y-110490000D03*
%TO.P,REF\u002A\u002A,2*%
%TO.N,Effect_in*%
X91520000Y-110490000D03*
%TO.P,REF\u002A\u002A,1*%
%TO.N,GND*%
X94020000Y-110490000D03*
%TD*%
D18*
%TO.P,Rgain1,1,1*%
%TO.N,Net-(R15-Pad1)*%
X120650000Y-87790000D03*
%TO.P,Rgain1,2,2*%
X124650000Y-92790000D03*
%TO.P,Rgain1,3,3*%
%TO.N,Net-(R14-Pad2)*%
X120650000Y-97790000D03*
%TD*%
D12*
%TO.P,C5,1*%
%TO.N,Net-(Q1-B)*%
X82550000Y-97790000D03*
%TO.P,C5,2*%
%TO.N,Net-(C4-Pad1)*%
X82550000Y-102790000D03*
%TD*%
D15*
%TO.P,R4,1*%
%TO.N,Net-(C4-Pad1)*%
X86360000Y-105370000D03*
%TO.P,R4,2*%
%TO.N,Effect_in*%
X91440000Y-105370000D03*
%TD*%
%TO.P,R6,1*%
%TO.N,Net-(Q1-E)*%
X86360000Y-95210000D03*
%TO.P,R6,2*%
%TO.N,GND*%
X91440000Y-95210000D03*
%TD*%
D12*
%TO.P,C4,1*%
%TO.N,Net-(C4-Pad1)*%
X86440000Y-101560000D03*
%TO.P,C4,2*%
%TO.N,GND*%
X91440000Y-101560000D03*
%TD*%
D25*
%TO.P,Q1,1,C*%
%TO.N,+9V*%
X83566000Y-93686000D03*
%TO.P,Q1,2,B*%
%TO.N,Net-(Q1-B)*%
X82296000Y-93686000D03*
D26*
%TO.P,Q1,3,E*%
%TO.N,Net-(Q1-E)*%
X81026000Y-93686000D03*
%TD*%
D15*
%TO.P,R5,1*%
%TO.N,Net-(Q1-B)*%
X86360000Y-97750000D03*
%TO.P,R5,2*%
%TO.N,+4.5V*%
X91440000Y-97750000D03*
%TD*%
D27*
%TO.N,+9V*%
X107140000Y-106913840D02*
X107140000Y-109220000D01*
%TO.N,GND*%
X96347805Y-112817805D02*
X94020000Y-110490000D01*
X104088528Y-112817805D02*
X96347805Y-112817805D01*
X107088528Y-112817805D02*
X104088528Y-112817805D01*
%TO.N,+9V*%
X107140000Y-109220000D02*
X104140000Y-109220000D01*
%TO.N,Net-(C21-Pad2)*%
X78740000Y-68620000D02*
X76200000Y-71160000D01*
X78740000Y-66040000D02*
X78740000Y-68620000D01*
%TO.N,GND*%
X92366000Y-78274000D02*
X91980000Y-78660000D01*
X104309000Y-78274000D02*
X92366000Y-78274000D01*
X105410000Y-79375000D02*
X104309000Y-78274000D01*
%TO.N,Net-(U1A--)*%
X88415160Y-76431000D02*
X86591000Y-76431000D01*
X89707160Y-75139000D02*
X88415160Y-76431000D01*
X128479000Y-75139000D02*
X89707160Y-75139000D01*
X86591000Y-76431000D02*
X85090000Y-74930000D01*
X129540000Y-76200000D02*
X128479000Y-75139000D01*
%TO.N,GND*%
X134620000Y-64770000D02*
X133350000Y-66040000D01*
X144780000Y-64770000D02*
X134620000Y-64770000D01*
X146050000Y-66040000D02*
X144780000Y-64770000D01*
%TO.N,Dist_out*%
X142240000Y-86360000D02*
X139700000Y-83820000D01*
X147280000Y-86360000D02*
X142240000Y-86360000D01*
X148590000Y-87670000D02*
X147280000Y-86360000D01*
%TO.N,GND*%
X117981000Y-81151000D02*
X116840000Y-80010000D01*
X117981000Y-91311000D02*
X117981000Y-81151000D01*
X129540000Y-102870000D02*
X117981000Y-91311000D01*
X130810000Y-102870000D02*
X129540000Y-102870000D01*
X133350000Y-100330000D02*
X130810000Y-102870000D01*
X137160000Y-100330000D02*
X133350000Y-100330000D01*
X139660000Y-102830000D02*
X137160000Y-100330000D01*
X142240000Y-102830000D02*
X139660000Y-102830000D01*
%TO.N,Net-(Q3-C)*%
X137160000Y-88900000D02*
X137160000Y-87630000D01*
X139700000Y-91440000D02*
X137160000Y-88900000D01*
X140970000Y-91440000D02*
X139700000Y-91440000D01*
X142240000Y-92710000D02*
X140970000Y-91440000D01*
X144780000Y-92710000D02*
X142240000Y-92710000D01*
%TO.N,Net-(Q2-E)*%
X114121000Y-88456000D02*
X114121000Y-91659000D01*
X113295000Y-87630000D02*
X114121000Y-88456000D01*
X113070000Y-87630000D02*
X113295000Y-87630000D01*
X114121000Y-91659000D02*
X113070000Y-92710000D01*
%TO.N,+9V*%
X114071000Y-99982840D02*
X107140000Y-106913840D01*
X110261000Y-93565372D02*
X114071000Y-97375372D01*
X110261000Y-88631000D02*
X110261000Y-93565372D01*
X114071000Y-97375372D02*
X114071000Y-99982840D01*
X109260000Y-87630000D02*
X110261000Y-88631000D01*
%TO.N,GND*%
X109260000Y-97790000D02*
X113070000Y-97790000D01*
X104180000Y-92710000D02*
X109260000Y-97790000D01*
X102910000Y-93980000D02*
X104180000Y-92710000D01*
X102910000Y-100330000D02*
X102910000Y-93980000D01*
X102830000Y-100250000D02*
X102910000Y-100330000D01*
X96560000Y-100250000D02*
X102830000Y-100250000D01*
%TO.N,+9V*%
X87630000Y-82550000D02*
X104180000Y-82550000D01*
%TO.N,+4.5V*%
X81011000Y-83551000D02*
X80010000Y-82550000D01*
X81011000Y-88004628D02*
X81011000Y-83551000D01*
X80200000Y-88815628D02*
X81011000Y-88004628D01*
X81852000Y-94737000D02*
X80200000Y-94737000D01*
X83864000Y-96749000D02*
X81852000Y-94737000D01*
X90439000Y-96749000D02*
X83864000Y-96749000D01*
X91440000Y-97750000D02*
X90439000Y-96749000D01*
X80200000Y-94737000D02*
X80200000Y-88815628D01*
X100410000Y-79375000D02*
X98736000Y-81049000D01*
%TO.N,GND*%
X77430000Y-82550000D02*
X77430000Y-85010000D01*
X77430000Y-85010000D02*
X80010000Y-87590000D01*
X76200000Y-81320000D02*
X77430000Y-82550000D01*
X76200000Y-76160000D02*
X76200000Y-81320000D01*
X72430000Y-76160000D02*
X72390000Y-76200000D01*
X76200000Y-76160000D02*
X72430000Y-76160000D01*
X77430000Y-74930000D02*
X76200000Y-76160000D01*
X80010000Y-74930000D02*
X77430000Y-74930000D01*
X83740000Y-78660000D02*
X80010000Y-74930000D01*
X91980000Y-78660000D02*
X83740000Y-78660000D01*
%TO.N,+4.5V*%
X81511000Y-81049000D02*
X80010000Y-82550000D01*
X98736000Y-81049000D02*
X81511000Y-81049000D01*
%TO.N,+9V*%
X83566000Y-86614000D02*
X83566000Y-93686000D01*
X87630000Y-82550000D02*
X83566000Y-86614000D01*
X104180000Y-82550000D02*
X109260000Y-87630000D01*
%TD*%
M02*
